<!DOCTYPE svg PUBLIC "-//W3C//DTD SVG 1.1//EN" "http://www.w3.org/Graphics/SVG/1.1/DTD/svg11.dtd">
<!-- Uploaded to: SVG Repo, www.svgrepo.com, Transformed by: SVG Repo Mixer Tools -->
<svg fill="#19a90f" width="64px" height="64px" viewBox="0 0 24.00 24.00" xmlns="http://www.w3.org/2000/svg" stroke="#19a90f" stroke-width="0.00024000000000000003">
<g id="SVGRepo_bgCarrier" stroke-width="0"/>
<g id="SVGRepo_tracerCarrier" stroke-linecap="round" stroke-linejoin="round"/>
<g id="SVGRepo_iconCarrier">
<path d="M20,1H4A1,1,0,0,0,3,2V22a1,1,0,0,0,1,1H20a1,1,0,0,0,1-1V2A1,1,0,0,0,20,1ZM19,21H5V3H19ZM8.528,16.882a1,1,0,0,0,1.027-.05l6-4a1,1,0,0,0,0-1.664l-6-4A1,1,0,0,0,8,8v8A1,1,0,0,0,8.528,16.882ZM10,9.868,13.2,12,10,14.132Z"/>
</g>
</svg>