<svg viewBox="0 0 256 256" xmlns="http://www.w3.org/2000/svg"><path d="m245.4834 125.56311c-.3457-.77637-8.666-19.2334-27.24024-37.80957-17.22461-17.22654-46.86328-37.76172-90.24316-37.76172s-73.01855 20.53518-90.24316 37.76172c-18.57422 18.57617-26.89454 37.0332-27.24024 37.80957a6.0013 6.0013 0 0 0 .001 4.874c.34472.77637 8.666 19.2295 27.24023 37.80176 17.22459 17.22268 46.86229 37.75295 90.24217 37.75295s73.01758-20.53027 90.24219-37.75293c18.57422-18.57226 26.89551-37.02539 27.24023-37.80176a6.00126 6.00126 0 0 0 .00098-4.87402zm-117.4834 68.42871c-31.37793 0-58.78027-11.416-81.44824-33.93066a134.65977 134.65977 0 0 1 -23.86133-32.06153 134.689 134.689 0 0 1 23.8623-32.07031c22.667-22.51953 50.07032-33.9375 81.44727-33.9375s58.78027 11.418 81.44727 33.9375a134.66457 134.66457 0 0 1 23.86132 32.06836c-6.36718 12.2002-38.26953 65.99414-105.30859 65.99414zm0-111.99121a46 46 0 1 0 46 46 46.05239 46.05239 0 0 0 -46-46zm0 80a34 34 0 1 1 34-34 34.038 34.038 0 0 1 -34 34z"/></svg>